<svg xmlns="http://www.w3.org/2000/svg" width="32.885" height="27.046" viewBox="0 0 32.885 27.046">
  <g id="Group_62" data-name="Group 62" transform="translate(-90 -497.313)">
    <path id="Path_101" data-name="Path 101" d="M120.8,501.5h-7.318l-2-3.685H101.4l-2,3.685H92.088a1.588,1.588,0,0,0-1.588,1.586v19.187a1.588,1.588,0,0,0,1.588,1.588H120.8a1.586,1.586,0,0,0,1.586-1.588V503.084A1.586,1.586,0,0,0,120.8,501.5Z" fill="none" stroke="#514051" stroke-linecap="round" stroke-linejoin="round" stroke-width="1"/>
    <path id="Path_102" data-name="Path 102" d="M105.626,509.122a.741.741,0,1,1-.74-.741A.739.739,0,0,1,105.626,509.122Z" fill="none" stroke="#fff" stroke-linecap="round" stroke-linejoin="round" stroke-width="1"/>
    <g id="Group_61" data-name="Group 61">
      <path id="Path_103" data-name="Path 103" d="M112.664,510.678a6.222,6.222,0,1,1-6.221-6.221A6.222,6.222,0,0,1,112.664,510.678Z" fill="none" stroke="#514051" stroke-linecap="round" stroke-linejoin="round" stroke-width="1"/>
      <path id="Path_104" data-name="Path 104" d="M107.6,510.678a1.157,1.157,0,1,1-1.157-1.157A1.156,1.156,0,0,1,107.6,510.678Z" fill="none" stroke="#514051" stroke-linecap="round" stroke-linejoin="round" stroke-width="1"/>
    </g>
    <path id="Path_105" data-name="Path 105" d="M112.46,509.122a6.222,6.222,0,1,1-12.036,0h-6.87V519.85a.828.828,0,0,0,.828.828H118.5a.828.828,0,0,0,.828-.828V509.122Z" fill="#514051"/>
  </g>
</svg>
